<svg width="55" height="19" viewBox="0 0 55 19" fill="none" xmlns="http://www.w3.org/2000/svg">
<path d="M5.24 5.64H11.98L11.48 8.16H4.74L5.24 5.64ZM4.32 11.4H11.96L11.42 14H0.58L3.38 -9.53674e-07H13.96L13.42 2.6H6.08L4.32 11.4ZM13.998 14L16.798 -9.53674e-07H22.458C24.2046 -9.53674e-07 25.5513 0.386666 26.498 1.16C27.458 1.92 27.938 2.98667 27.938 4.36C27.938 5.53333 27.6646 6.56 27.118 7.44C26.5713 8.30667 25.7846 8.97333 24.758 9.44C23.7446 9.90667 22.538 10.14 21.138 10.14H16.598L18.318 8.66L17.258 14H13.998ZM18.238 9.04L17.098 7.5H21.278C22.3446 7.5 23.1713 7.26 23.758 6.78C24.358 6.28667 24.658 5.57333 24.658 4.64C24.658 3.96 24.4313 3.46 23.978 3.14C23.5246 2.80667 22.8846 2.64 22.058 2.64H18.118L19.838 1.06L18.238 9.04ZM33.0916 14.16C32.2649 14.16 31.4982 13.9733 30.7916 13.6C30.0849 13.2133 29.5182 12.66 29.0916 11.94C28.6649 11.22 28.4516 10.3533 28.4516 9.34C28.4516 8.43333 28.5982 7.6 28.8916 6.84C29.1982 6.08 29.6249 5.42 30.1716 4.86C30.7182 4.3 31.3516 3.86667 32.0716 3.56C32.7916 3.24 33.5649 3.08 34.3916 3.08C35.2849 3.08 36.0516 3.24667 36.6916 3.58C37.3316 3.91333 37.8049 4.43333 38.1116 5.14C38.4316 5.83333 38.5449 6.73333 38.4516 7.84C38.3849 9.10667 38.1249 10.22 37.6716 11.18C37.2182 12.1267 36.6049 12.86 35.8316 13.38C35.0716 13.9 34.1582 14.16 33.0916 14.16ZM34.0516 11.58C34.6649 11.58 35.2049 11.4333 35.6716 11.14C36.1516 10.8333 36.5249 10.42 36.7916 9.9C37.0716 9.36667 37.2116 8.74667 37.2116 8.04C37.2116 7.30667 36.9916 6.72667 36.5516 6.3C36.1249 5.87333 35.5249 5.66 34.7516 5.66C34.1516 5.66 33.6116 5.81333 33.1316 6.12C32.6516 6.41333 32.2716 6.82667 31.9916 7.36C31.7249 7.88 31.5916 8.49333 31.5916 9.2C31.5916 9.93333 31.8049 10.5133 32.2316 10.94C32.6716 11.3667 33.2782 11.58 34.0516 11.58ZM36.1916 14L36.6116 11.86L37.3116 8.66L37.7316 5.46L38.1716 3.24H41.2916L39.1516 14H36.1916ZM42.7802 18.04C42.2335 18.04 41.6935 17.9533 41.1602 17.78C40.6135 17.6067 40.1802 17.38 39.8602 17.1L41.3002 14.86C41.5268 15.06 41.7802 15.22 42.0602 15.34C42.3535 15.46 42.6735 15.52 43.0202 15.52C43.4202 15.52 43.7668 15.42 44.0602 15.22C44.3668 15.02 44.6668 14.68 44.9602 14.2L45.8202 12.84L46.1002 12.52L51.7802 3.24H54.8602L47.7002 14.72C47.1668 15.56 46.6535 16.22 46.1602 16.7C45.6802 17.1933 45.1668 17.54 44.6202 17.74C44.0868 17.94 43.4735 18.04 42.7802 18.04ZM45.1602 14.42L42.5802 3.24H45.7002L47.6602 12.24L45.1602 14.42Z" fill="#D7C4FF"/>
</svg>
