<svg width="79" height="16" viewBox="0 0 79 16" fill="none" xmlns="http://www.w3.org/2000/svg">
<path d="M8.42 15.24C7.31333 15.24 6.29333 15.0667 5.36 14.72C4.44 14.36 3.63333 13.8533 2.94 13.2C2.26 12.5467 1.72667 11.78 1.34 10.9C0.966667 10.02 0.78 9.05333 0.78 8C0.78 6.94667 0.966667 5.98 1.34 5.1C1.72667 4.22 2.26667 3.45333 2.96 2.8C3.65333 2.14667 4.46667 1.64667 5.4 1.3C6.33333 0.939999 7.36 0.76 8.48 0.76C9.72 0.76 10.8333 0.966666 11.82 1.38C12.82 1.79333 13.66 2.39333 14.34 3.18L12.26 5.1C11.7533 4.56667 11.2 4.17333 10.6 3.92C10 3.65333 9.34667 3.52 8.64 3.52C7.96 3.52 7.34 3.62667 6.78 3.84C6.22 4.05333 5.73333 4.36 5.32 4.76C4.92 5.16 4.60667 5.63333 4.38 6.18C4.16667 6.72667 4.06 7.33333 4.06 8C4.06 8.65333 4.16667 9.25333 4.38 9.8C4.60667 10.3467 4.92 10.8267 5.32 11.24C5.73333 11.64 6.21333 11.9467 6.76 12.16C7.32 12.3733 7.93333 12.48 8.6 12.48C9.24 12.48 9.86 12.38 10.46 12.18C11.0733 11.9667 11.6667 11.6133 12.24 11.12L14.08 13.46C13.32 14.0333 12.4333 14.4733 11.42 14.78C10.42 15.0867 9.42 15.24 8.42 15.24ZM11.12 13.04V7.78H14.08V13.46L11.12 13.04ZM21.9897 15.16C20.843 15.16 19.823 14.92 18.9297 14.44C18.0497 13.96 17.3497 13.3067 16.8297 12.48C16.323 11.64 16.0697 10.6867 16.0697 9.62C16.0697 8.54 16.323 7.58667 16.8297 6.76C17.3497 5.92 18.0497 5.26667 18.9297 4.8C19.823 4.32 20.843 4.08 21.9897 4.08C23.123 4.08 24.1364 4.32 25.0297 4.8C25.923 5.26667 26.623 5.91333 27.1297 6.74C27.6364 7.56667 27.8897 8.52667 27.8897 9.62C27.8897 10.6867 27.6364 11.64 27.1297 12.48C26.623 13.3067 25.923 13.96 25.0297 14.44C24.1364 14.92 23.123 15.16 21.9897 15.16ZM21.9897 12.6C22.5097 12.6 22.9764 12.48 23.3897 12.24C23.803 12 24.1297 11.66 24.3697 11.22C24.6097 10.7667 24.7297 10.2333 24.7297 9.62C24.7297 8.99333 24.6097 8.46 24.3697 8.02C24.1297 7.58 23.803 7.24 23.3897 7C22.9764 6.76 22.5097 6.64 21.9897 6.64C21.4697 6.64 21.003 6.76 20.5897 7C20.1764 7.24 19.843 7.58 19.5897 8.02C19.3497 8.46 19.2297 8.99333 19.2297 9.62C19.2297 10.2333 19.3497 10.7667 19.5897 11.22C19.843 11.66 20.1764 12 20.5897 12.24C21.003 12.48 21.4697 12.6 21.9897 12.6ZM36.8952 15.24C35.8152 15.24 34.8085 15.0667 33.8752 14.72C32.9552 14.36 32.1552 13.8533 31.4752 13.2C30.7952 12.5467 30.2618 11.78 29.8752 10.9C29.5018 10.02 29.3152 9.05333 29.3152 8C29.3152 6.94667 29.5018 5.98 29.8752 5.1C30.2618 4.22 30.7952 3.45333 31.4752 2.8C32.1685 2.14667 32.9752 1.64667 33.8952 1.3C34.8152 0.939999 35.8218 0.76 36.9152 0.76C38.1285 0.76 39.2218 0.973333 40.1952 1.4C41.1818 1.81333 42.0085 2.42667 42.6752 3.24L40.5952 5.16C40.1152 4.61333 39.5818 4.20667 38.9952 3.94C38.4085 3.66 37.7685 3.52 37.0752 3.52C36.4218 3.52 35.8218 3.62667 35.2752 3.84C34.7285 4.05333 34.2552 4.36 33.8552 4.76C33.4552 5.16 33.1418 5.63333 32.9152 6.18C32.7018 6.72667 32.5952 7.33333 32.5952 8C32.5952 8.66667 32.7018 9.27333 32.9152 9.82C33.1418 10.3667 33.4552 10.84 33.8552 11.24C34.2552 11.64 34.7285 11.9467 35.2752 12.16C35.8218 12.3733 36.4218 12.48 37.0752 12.48C37.7685 12.48 38.4085 12.3467 38.9952 12.08C39.5818 11.8 40.1152 11.38 40.5952 10.82L42.6752 12.74C42.0085 13.5533 41.1818 14.1733 40.1952 14.6C39.2218 15.0267 38.1218 15.24 36.8952 15.24ZM51.1845 15V12.9L50.9845 12.44V8.68C50.9845 8.01333 50.7779 7.49333 50.3645 7.12C49.9645 6.74667 49.3445 6.56 48.5045 6.56C47.9312 6.56 47.3645 6.65333 46.8045 6.84C46.2579 7.01333 45.7912 7.25333 45.4045 7.56L44.2845 5.38C44.8712 4.96667 45.5779 4.64667 46.4045 4.42C47.2312 4.19333 48.0712 4.08 48.9245 4.08C50.5645 4.08 51.8379 4.46667 52.7445 5.24C53.6512 6.01333 54.1045 7.22 54.1045 8.86V15H51.1845ZM47.9045 15.16C47.0645 15.16 46.3445 15.02 45.7445 14.74C45.1445 14.4467 44.6845 14.0533 44.3645 13.56C44.0445 13.0667 43.8845 12.5133 43.8845 11.9C43.8845 11.26 44.0379 10.7 44.3445 10.22C44.6645 9.74 45.1645 9.36667 45.8445 9.1C46.5245 8.82 47.4112 8.68 48.5045 8.68H51.3645V10.5H48.8445C48.1112 10.5 47.6045 10.62 47.3245 10.86C47.0579 11.1 46.9245 11.4 46.9245 11.76C46.9245 12.16 47.0779 12.48 47.3845 12.72C47.7045 12.9467 48.1379 13.06 48.6845 13.06C49.2045 13.06 49.6712 12.94 50.0845 12.7C50.4979 12.4467 50.7979 12.08 50.9845 11.6L51.4645 13.04C51.2379 13.7333 50.8245 14.26 50.2245 14.62C49.6245 14.98 48.8512 15.16 47.9045 15.16ZM60.5483 15.16C59.6283 15.16 58.7416 15.0533 57.8883 14.84C57.0483 14.6133 56.3816 14.3333 55.8883 14L56.9283 11.76C57.4216 12.0667 58.0016 12.32 58.6683 12.52C59.3483 12.7067 60.0149 12.8 60.6683 12.8C61.3883 12.8 61.8949 12.7133 62.1883 12.54C62.4949 12.3667 62.6483 12.1267 62.6483 11.82C62.6483 11.5667 62.5283 11.38 62.2883 11.26C62.0616 11.1267 61.7549 11.0267 61.3683 10.96C60.9816 10.8933 60.5549 10.8267 60.0883 10.76C59.6349 10.6933 59.1749 10.6067 58.7083 10.5C58.2416 10.38 57.8149 10.2067 57.4283 9.98C57.0416 9.75333 56.7283 9.44667 56.4883 9.06C56.2616 8.67333 56.1483 8.17333 56.1483 7.56C56.1483 6.88 56.3416 6.28 56.7283 5.76C57.1283 5.24 57.7016 4.83333 58.4483 4.54C59.1949 4.23333 60.0883 4.08 61.1283 4.08C61.8616 4.08 62.6083 4.16 63.3683 4.32C64.1283 4.48 64.7616 4.71333 65.2683 5.02L64.2283 7.24C63.7083 6.93333 63.1816 6.72667 62.6483 6.62C62.1283 6.5 61.6216 6.44 61.1283 6.44C60.4349 6.44 59.9283 6.53333 59.6083 6.72C59.2883 6.90667 59.1283 7.14667 59.1283 7.44C59.1283 7.70667 59.2416 7.90667 59.4683 8.04C59.7083 8.17333 60.0216 8.28 60.4083 8.36C60.7949 8.44 61.2149 8.51333 61.6683 8.58C62.1349 8.63333 62.6016 8.72 63.0683 8.84C63.5349 8.96 63.9549 9.13333 64.3283 9.36C64.7149 9.57333 65.0283 9.87333 65.2683 10.26C65.5083 10.6333 65.6283 11.1267 65.6283 11.74C65.6283 12.4067 65.4283 13 65.0283 13.52C64.6283 14.0267 64.0483 14.4267 63.2883 14.72C62.5416 15.0133 61.6283 15.16 60.5483 15.16ZM74.0933 4.08C74.9466 4.08 75.7066 4.25333 76.3733 4.6C77.0533 4.93333 77.5866 5.45333 77.9733 6.16C78.3599 6.85333 78.5533 7.74667 78.5533 8.84V15H75.4333V9.32C75.4333 8.45333 75.2399 7.81333 74.8533 7.4C74.4799 6.98667 73.9466 6.78 73.2533 6.78C72.7599 6.78 72.3133 6.88667 71.9133 7.1C71.5266 7.3 71.2199 7.61333 70.9933 8.04C70.7799 8.46667 70.6733 9.01333 70.6733 9.68V15H67.5533V0.159999H70.6733V7.22L69.9733 6.32C70.3599 5.6 70.9133 5.04667 71.6333 4.66C72.3533 4.27333 73.1733 4.08 74.0933 4.08Z" fill="#D7C4FF"/>
</svg>
