<svg width="500" height="500" viewBox="0 0 500 500" fill="none" xmlns="http://www.w3.org/2000/svg">
<rect width="500" height="500" rx="100" fill="white"/>
<path d="M224.372 217.5V83.0601C224.372 60.3832 242.755 42 265.432 42H389.936C423.073 42 449.936 68.8629 449.936 102V206.497C449.936 239.635 423.073 266.497 389.936 266.497H275V433.686C275 447.666 263.667 459 249.686 459C235.706 459 224.372 447.666 224.372 433.686V266.497H74.4987C60.9684 266.497 50 255.529 50 241.999C50 228.468 60.9684 217.5 74.4987 217.5H224.372Z" fill="#996AFF"/>
<path d="M278 218V112C278 95.4315 291.431 82 308 82H375C391.569 82 405 95.4315 405 112V188C405 204.569 391.569 218 375 218H278Z" fill="white"/>
</svg>
