<svg width="82" height="19" viewBox="0 0 82 19" fill="none" xmlns="http://www.w3.org/2000/svg">
<path d="M0.58 14L3.38 -9.53674e-07H9.04C10.7867 -9.53674e-07 12.1333 0.386666 13.08 1.16C14.04 1.92 14.52 2.98667 14.52 4.36C14.52 5.53333 14.2467 6.56 13.7 7.44C13.1533 8.30667 12.3667 8.97333 11.34 9.44C10.3267 9.90667 9.12 10.14 7.72 10.14H3.18L4.9 8.66L3.84 14H0.58ZM4.82 9.04L3.68 7.5H7.86C8.92667 7.5 9.75333 7.26 10.34 6.78C10.94 6.28667 11.24 5.57333 11.24 4.64C11.24 3.96 11.0133 3.46 10.56 3.14C10.1067 2.80667 9.46667 2.64 8.64 2.64H4.7L6.42 1.06L4.82 9.04ZM19.6736 14.16C18.8469 14.16 18.0803 13.9733 17.3736 13.6C16.6669 13.2133 16.1003 12.66 15.6736 11.94C15.2469 11.22 15.0336 10.3533 15.0336 9.34C15.0336 8.43333 15.1803 7.6 15.4736 6.84C15.7803 6.08 16.2069 5.42 16.7536 4.86C17.3003 4.3 17.9336 3.86667 18.6536 3.56C19.3736 3.24 20.1469 3.08 20.9736 3.08C21.8669 3.08 22.6336 3.24667 23.2736 3.58C23.9136 3.91333 24.3869 4.43333 24.6936 5.14C25.0136 5.83333 25.1269 6.73333 25.0336 7.84C24.9669 9.10667 24.7069 10.22 24.2536 11.18C23.8003 12.1267 23.1869 12.86 22.4136 13.38C21.6536 13.9 20.7403 14.16 19.6736 14.16ZM20.6336 11.58C21.2469 11.58 21.7869 11.4333 22.2536 11.14C22.7336 10.8333 23.1069 10.42 23.3736 9.9C23.6536 9.36667 23.7936 8.74667 23.7936 8.04C23.7936 7.30667 23.5736 6.72667 23.1336 6.3C22.7069 5.87333 22.1069 5.66 21.3336 5.66C20.7336 5.66 20.1936 5.81333 19.7136 6.12C19.2336 6.41333 18.8536 6.82667 18.5736 7.36C18.3069 7.88 18.1736 8.49333 18.1736 9.2C18.1736 9.93333 18.3869 10.5133 18.8136 10.94C19.2536 11.3667 19.8603 11.58 20.6336 11.58ZM22.7736 14L23.1936 11.86L23.8936 8.66L24.3136 5.46L24.7536 3.24H27.8736L25.7336 14H22.7736ZM29.3622 18.04C28.8155 18.04 28.2755 17.9533 27.7422 17.78C27.1955 17.6067 26.7622 17.38 26.4422 17.1L27.8822 14.86C28.1089 15.06 28.3622 15.22 28.6422 15.34C28.9355 15.46 29.2555 15.52 29.6022 15.52C30.0022 15.52 30.3489 15.42 30.6422 15.22C30.9489 15.02 31.2489 14.68 31.5422 14.2L32.4022 12.84L32.6822 12.52L38.3622 3.24H41.4422L34.2822 14.72C33.7489 15.56 33.2355 16.22 32.7422 16.7C32.2622 17.1933 31.7489 17.54 31.2022 17.74C30.6689 17.94 30.0555 18.04 29.3622 18.04ZM31.7422 14.42L29.1622 3.24H32.2822L34.2422 12.24L31.7422 14.42ZM40.7753 14L43.5753 -9.53674e-07H49.2353C50.982 -9.53674e-07 52.3286 0.386666 53.2753 1.16C54.2353 1.92 54.7153 2.98667 54.7153 4.36C54.7153 5.53333 54.442 6.56 53.8953 7.44C53.3486 8.30667 52.562 8.97333 51.5353 9.44C50.522 9.90667 49.3153 10.14 47.9153 10.14H43.3753L45.0953 8.66L44.0353 14H40.7753ZM45.0153 9.04L43.8753 7.5H48.0553C49.122 7.5 49.9486 7.26 50.5353 6.78C51.1353 6.28667 51.4353 5.57333 51.4353 4.64C51.4353 3.96 51.2086 3.46 50.7553 3.14C50.302 2.80667 49.662 2.64 48.8353 2.64H44.8953L46.6153 1.06L45.0153 9.04ZM59.8689 14.16C59.0422 14.16 58.2756 13.9733 57.5689 13.6C56.8622 13.2133 56.2956 12.66 55.8689 11.94C55.4422 11.22 55.2289 10.3533 55.2289 9.34C55.2289 8.43333 55.3756 7.6 55.6689 6.84C55.9756 6.08 56.4022 5.42 56.9489 4.86C57.4956 4.3 58.1289 3.86667 58.8489 3.56C59.5689 3.24 60.3422 3.08 61.1689 3.08C62.0622 3.08 62.8289 3.24667 63.4689 3.58C64.1089 3.91333 64.5822 4.43333 64.8889 5.14C65.2089 5.83333 65.3222 6.73333 65.2289 7.84C65.1622 9.10667 64.9022 10.22 64.4489 11.18C63.9956 12.1267 63.3822 12.86 62.6089 13.38C61.8489 13.9 60.9356 14.16 59.8689 14.16ZM60.8289 11.58C61.4422 11.58 61.9822 11.4333 62.4489 11.14C62.9289 10.8333 63.3022 10.42 63.5689 9.9C63.8489 9.36667 63.9889 8.74667 63.9889 8.04C63.9889 7.30667 63.7689 6.72667 63.3289 6.3C62.9022 5.87333 62.3022 5.66 61.5289 5.66C60.9289 5.66 60.3889 5.81333 59.9089 6.12C59.4289 6.41333 59.0489 6.82667 58.7689 7.36C58.5022 7.88 58.3689 8.49333 58.3689 9.2C58.3689 9.93333 58.5822 10.5133 59.0089 10.94C59.4489 11.3667 60.0556 11.58 60.8289 11.58ZM62.9689 14L63.3889 11.86L64.0889 8.66L64.5089 5.46L64.9489 3.24H68.0689L65.9289 14H62.9689ZM69.5575 18.04C69.0108 18.04 68.4708 17.9533 67.9375 17.78C67.3908 17.6067 66.9575 17.38 66.6375 17.1L68.0775 14.86C68.3042 15.06 68.5575 15.22 68.8375 15.34C69.1308 15.46 69.4508 15.52 69.7975 15.52C70.1975 15.52 70.5442 15.42 70.8375 15.22C71.1442 15.02 71.4442 14.68 71.7375 14.2L72.5975 12.84L72.8775 12.52L78.5575 3.24H81.6375L74.4775 14.72C73.9442 15.56 73.4308 16.22 72.9375 16.7C72.4575 17.1933 71.9442 17.54 71.3975 17.74C70.8642 17.94 70.2508 18.04 69.5575 18.04ZM71.9375 14.42L69.3575 3.24H72.4775L74.4375 12.24L71.9375 14.42Z" fill="#D7C4FF"/>
</svg>
