<svg width="24" height="24" viewBox="0 0 24 24" fill="none" xmlns="http://www.w3.org/2000/svg">
<g id="line/user/user-smile-line">
<path id="Vector" d="M12 19.6391C7.78101 19.6391 4.36108 16.2192 4.36108 12.0002C4.36108 7.78126 7.78101 4.36133 12 4.36133C16.2189 4.36133 19.6389 7.78126 19.6389 12.0002C19.6389 16.2192 16.2189 19.6391 12 19.6391ZM12 18.1113C13.6207 18.1113 15.1751 17.4675 16.3212 16.3214C17.4672 15.1754 18.1111 13.621 18.1111 12.0002C18.1111 10.3794 17.4672 8.82506 16.3212 7.67901C15.1751 6.53295 13.6207 5.88911 12 5.88911C10.3792 5.88911 8.82482 6.53295 7.67876 7.67901C6.53271 8.82506 5.88886 10.3794 5.88886 12.0002C5.88886 13.621 6.53271 15.1754 7.67876 16.3214C8.82482 17.4675 10.3792 18.1113 12 18.1113ZM8.18053 12.0002H9.70831C9.70831 12.608 9.94975 13.1909 10.3795 13.6207C10.8093 14.0504 11.3922 14.2919 12 14.2919C12.6078 14.2919 13.1907 14.0504 13.6204 13.6207C14.0502 13.1909 14.2916 12.608 14.2916 12.0002H15.8194C15.8194 13.0132 15.417 13.9847 14.7007 14.701C13.9844 15.4173 13.013 15.8197 12 15.8197C10.987 15.8197 10.0155 15.4173 9.29922 14.701C8.58293 13.9847 8.18053 13.0132 8.18053 12.0002Z" fill="#ACB4C3"/>
</g>
</svg>
