<svg width="71" height="22" viewBox="0 0 71 22" fill="none" xmlns="http://www.w3.org/2000/svg">
<path d="M13.86 19L7.82 5H11.32L16.6 17.4H14.54L19.9 5H23.12L17.06 19H13.86ZM24.2889 19V5H27.5289V19H24.2889ZM35.4514 19.24C34.3314 19.24 33.2581 19.0933 32.2314 18.8C31.2047 18.4933 30.3781 18.1 29.7514 17.62L30.8514 15.18C31.4514 15.6067 32.1581 15.96 32.9714 16.24C33.7981 16.5067 34.6314 16.64 35.4714 16.64C36.1114 16.64 36.6247 16.58 37.0114 16.46C37.4114 16.3267 37.7047 16.1467 37.8914 15.92C38.0781 15.6933 38.1714 15.4333 38.1714 15.14C38.1714 14.7667 38.0247 14.4733 37.7314 14.26C37.4381 14.0333 37.0514 13.8533 36.5714 13.72C36.0914 13.5733 35.5581 13.44 34.9714 13.32C34.3981 13.1867 33.8181 13.0267 33.2314 12.84C32.6581 12.6533 32.1314 12.4133 31.6514 12.12C31.1714 11.8267 30.7781 11.44 30.4714 10.96C30.1781 10.48 30.0314 9.86667 30.0314 9.12C30.0314 8.32 30.2447 7.59333 30.6714 6.94C31.1114 6.27333 31.7647 5.74667 32.6314 5.36C33.5114 4.96 34.6114 4.76 35.9314 4.76C36.8114 4.76 37.6781 4.86667 38.5314 5.08C39.3847 5.28 40.1381 5.58667 40.7914 6L39.7914 8.46C39.1381 8.08667 38.4847 7.81333 37.8314 7.64C37.1781 7.45333 36.5381 7.36 35.9114 7.36C35.2847 7.36 34.7714 7.43333 34.3714 7.58C33.9714 7.72667 33.6847 7.92 33.5114 8.16C33.3381 8.38667 33.2514 8.65333 33.2514 8.96C33.2514 9.32 33.3981 9.61333 33.6914 9.84C33.9847 10.0533 34.3714 10.2267 34.8514 10.36C35.3314 10.4933 35.8581 10.6267 36.4314 10.76C37.0181 10.8933 37.5981 11.0467 38.1714 11.22C38.7581 11.3933 39.2914 11.6267 39.7714 11.92C40.2514 12.2133 40.6381 12.6 40.9314 13.08C41.2381 13.56 41.3914 14.1667 41.3914 14.9C41.3914 15.6867 41.1714 16.4067 40.7314 17.06C40.2914 17.7133 39.6314 18.24 38.7514 18.64C37.8847 19.04 36.7847 19.24 35.4514 19.24ZM46.31 19V7.64H41.83V5H54.03V7.64H49.55V19H46.31ZM53.2302 19L59.4702 5H62.6702L68.9302 19H65.5302L60.4102 6.64H61.6902L56.5502 19H53.2302ZM56.3502 16L57.2102 13.54H64.4102L65.2902 16H56.3502Z" fill="#D7C4FF"/>
<path d="M0 5H7.81854C9.5 9 12.318 15.221 11 12.5C8.97829 8.32629 3.1708 6.62909 0 5Z" fill="#D7C4FF"/>
</svg>
